<svg width="16" height="22" viewBox="0 0 16 22" fill="none" xmlns="http://www.w3.org/2000/svg">
<path fill-rule="evenodd" clip-rule="evenodd" d="M2.10825 20.9183C2.50807 21.4569 3.31434 21.4569 3.71416 20.9183L5.62357 18.346C6.11338 17.6862 5.64239 16.75 4.82061 16.75H4.41121L4.41121 1.00001C4.41121 0.447723 3.96349 6.89924e-06 3.41121 6.89924e-06H2.41121C1.85892 6.89924e-06 1.41121 0.447723 1.41121 1.00001L1.41121 16.75H1.0018C0.180028 16.75 -0.290964 17.6862 0.198844 18.346L2.10825 20.9183Z" fill="white"/>
<path d="M14.8116 8.05273V9.32227H9.85068V8.24805L12.1358 5.8457C12.3377 5.61458 12.5004 5.40788 12.6241 5.22559C12.7478 5.04004 12.8373 4.8724 12.8927 4.72266C12.9513 4.57292 12.9806 4.43783 12.9806 4.31738C12.9806 4.1123 12.9496 3.94141 12.8878 3.80469C12.8292 3.66471 12.7413 3.55892 12.6241 3.4873C12.5102 3.41569 12.3686 3.37988 12.1993 3.37988C12.03 3.37988 11.8819 3.42871 11.755 3.52637C11.628 3.62402 11.5287 3.75749 11.4571 3.92676C11.3888 4.09603 11.3546 4.28646 11.3546 4.49805H9.70419C9.70419 4.06185 9.80999 3.66309 10.0216 3.30176C10.2364 2.94043 10.5343 2.65234 10.9151 2.4375C11.296 2.2194 11.7371 2.11035 12.2384 2.11035C12.7625 2.11035 13.2019 2.19173 13.5567 2.35449C13.9115 2.51725 14.1785 2.75326 14.3575 3.0625C14.5398 3.36849 14.631 3.73796 14.631 4.1709C14.631 4.41829 14.5919 4.65592 14.5138 4.88379C14.4356 5.11165 14.3233 5.33789 14.1768 5.5625C14.0304 5.78385 13.8513 6.01172 13.6397 6.24609C13.4314 6.48047 13.1938 6.72949 12.9268 6.99316L12.0089 8.05273H14.8116Z" fill="white"/>
<path d="M13.4933 13.2129V20.3223H11.8477V15.0684L10.2267 15.542V14.292L13.3419 13.2129H13.4933Z" fill="white"/>
</svg>
