<svg width="16" height="22" viewBox="0 0 16 22" fill="none" xmlns="http://www.w3.org/2000/svg">
<path fill-rule="evenodd" clip-rule="evenodd" d="M3.71417 0.40396C3.31435 -0.134654 2.50807 -0.134653 2.10826 0.403961L0.19885 2.97622C-0.290958 3.63606 0.180032 4.57226 1.0018 4.57226H1.41121V20.3223C1.41121 20.8745 1.85893 21.3223 2.41121 21.3223H3.41121C3.9635 21.3223 4.41121 20.8745 4.41121 20.3223V4.57226H4.82062C5.64239 4.57226 6.11338 3.63606 5.62357 2.97622L3.71417 0.40396Z" fill="white"/>
<path d="M13.4933 2.21289V9.32227H11.8477V4.06836L10.2267 4.54199V3.29199L13.3419 2.21289H13.4933Z" fill="white"/>
<path d="M14.8116 19.0527V20.3223H9.85068V19.248L12.1358 16.8457C12.3377 16.6146 12.5004 16.4079 12.6241 16.2256C12.7478 16.04 12.8373 15.8724 12.8927 15.7227C12.9513 15.5729 12.9806 15.4378 12.9806 15.3174C12.9806 15.1123 12.9496 14.9414 12.8878 14.8047C12.8292 14.6647 12.7413 14.5589 12.6241 14.4873C12.5102 14.4157 12.3686 14.3799 12.1993 14.3799C12.03 14.3799 11.8819 14.4287 11.755 14.5264C11.628 14.624 11.5287 14.7575 11.4571 14.9268C11.3888 15.096 11.3546 15.2865 11.3546 15.498H9.70419C9.70419 15.0618 9.80999 14.6631 10.0216 14.3018C10.2364 13.9404 10.5343 13.6523 10.9151 13.4375C11.296 13.2194 11.7371 13.1104 12.2384 13.1104C12.7625 13.1104 13.2019 13.1917 13.5567 13.3545C13.9115 13.5173 14.1785 13.7533 14.3575 14.0625C14.5398 14.3685 14.631 14.738 14.631 15.1709C14.631 15.4183 14.5919 15.6559 14.5138 15.8838C14.4356 16.1117 14.3233 16.3379 14.1768 16.5625C14.0304 16.7839 13.8513 17.0117 13.6397 17.2461C13.4314 17.4805 13.1938 17.7295 12.9268 17.9932L12.0089 19.0527H14.8116Z" fill="white"/>
</svg>
